<svg width="18" height="17" viewBox="0 0 18 17" fill="none" xmlns="http://www.w3.org/2000/svg">
<path d="M1.5 6.00016C1.5 5.07969 2.24619 4.3335 3.16667 4.3335H3.94136C4.49862 4.3335 5.019 4.05499 5.32811 3.59133L6.00522 2.57566C6.31433 2.112 6.83472 1.8335 7.39197 1.8335H10.608C11.1653 1.8335 11.6857 2.112 11.9948 2.57566L12.6719 3.59133C12.981 4.05499 13.5014 4.3335 14.0586 4.3335H14.8333C15.7538 4.3335 16.5 5.07969 16.5 6.00016V13.5002C16.5 14.4206 15.7538 15.1668 14.8333 15.1668H3.16667C2.24619 15.1668 1.5 14.4206 1.5 13.5002V6.00016Z" stroke="#6A3EA1" stroke-width="2" stroke-linecap="round" stroke-linejoin="round"/>
<path d="M11.5 9.3335C11.5 10.7142 10.3807 11.8335 9 11.8335C7.61929 11.8335 6.5 10.7142 6.5 9.3335C6.5 7.95278 7.61929 6.8335 9 6.8335C10.3807 6.8335 11.5 7.95278 11.5 9.3335Z" stroke="#6A3EA1" stroke-width="2" stroke-linecap="round" stroke-linejoin="round"/>
</svg>
