<svg width="20" height="26" viewBox="0 0 20 26" fill="none" xmlns="http://www.w3.org/2000/svg">
<path d="M8.40002 0.209961C7.51637 0.209961 6.80002 0.926305 6.80002 1.80996C6.80002 2.69362 7.51637 3.40996 8.40002 3.40996H11.6C12.4837 3.40996 13.2 2.69362 13.2 1.80996C13.2 0.926305 12.4837 0.209961 11.6 0.209961H8.40002Z" fill="#828282"/>
<path fill-rule="evenodd" clip-rule="evenodd" d="M0.400024 5.00996C0.400024 3.24265 1.83271 1.80996 3.60002 1.80996C3.60002 4.46093 5.74906 6.60996 8.40002 6.60996H11.6C14.251 6.60996 16.4 4.46093 16.4 1.80996C18.1673 1.80996 19.6 3.24265 19.6 5.00996V22.61C19.6 24.3773 18.1673 25.81 16.4 25.81H3.60002C1.83271 25.81 0.400024 24.3773 0.400024 22.61V5.00996ZM5.20002 11.41C4.31637 11.41 3.60002 12.1263 3.60002 13.01C3.60002 13.8936 4.31637 14.61 5.20002 14.61H5.21602C6.09968 14.61 6.81602 13.8936 6.81602 13.01C6.81602 12.1263 6.09968 11.41 5.21602 11.41H5.20002ZM10 11.41C9.11637 11.41 8.40002 12.1263 8.40002 13.01C8.40002 13.8936 9.11637 14.61 10 14.61H14.8C15.6837 14.61 16.4 13.8936 16.4 13.01C16.4 12.1263 15.6837 11.41 14.8 11.41H10ZM5.20002 17.81C4.31637 17.81 3.60002 18.5263 3.60002 19.41C3.60002 20.2936 4.31637 21.01 5.20002 21.01H5.21602C6.09968 21.01 6.81602 20.2936 6.81602 19.41C6.81602 18.5263 6.09968 17.81 5.21602 17.81H5.20002ZM10 17.81C9.11637 17.81 8.40002 18.5263 8.40002 19.41C8.40002 20.2936 9.11637 21.01 10 21.01H14.8C15.6837 21.01 16.4 20.2936 16.4 19.41C16.4 18.5263 15.6837 17.81 14.8 17.81H10Z" fill="#828282"/>
</svg>
