<svg width="24" height="24" viewBox="0 0 24 24" fill="none" xmlns="http://www.w3.org/2000/svg">
<path d="M13 1.34277C13 0.790489 12.5523 0.342773 12 0.342773C11.4477 0.342773 11 0.790489 11 1.34277H13ZM11 2.67611C11 3.22839 11.4477 3.67611 12 3.67611C12.5523 3.67611 13 3.22839 13 2.67611H11ZM20 16.3428C19.4477 16.3428 19 16.7905 19 17.3428C19 17.8951 19.4477 18.3428 20 18.3428V16.3428ZM22.6666 18.3428C23.2189 18.3428 23.6666 17.8951 23.6666 17.3428C23.6666 16.7905 23.2189 16.3428 22.6666 16.3428V18.3428ZM12 17.3428V16.3428C11.4477 16.3428 11 16.7905 11 17.3428H12ZM14.6666 18.3428C15.2189 18.3428 15.6666 17.8951 15.6666 17.3428C15.6666 16.7905 15.2189 16.3428 14.6666 16.3428V18.3428ZM11 22.6761C11 23.2284 11.4477 23.6761 12 23.6761C12.5523 23.6761 13 23.2284 13 22.6761H11ZM13 8.00944C13 7.45715 12.5523 7.00944 12 7.00944C11.4477 7.00944 11 7.45715 11 8.00944H13ZM12 12.0094H11C11 12.5617 11.4477 13.0094 12 13.0094V12.0094ZM17.3333 21.6761C16.781 21.6761 16.3333 22.1238 16.3333 22.6761C16.3333 23.2284 16.781 23.6761 17.3333 23.6761V21.6761ZM22.6666 23.6761C23.2189 23.6761 23.6666 23.2284 23.6666 22.6761C23.6666 22.1238 23.2189 21.6761 22.6666 21.6761V23.6761ZM1.33331 11.0094C0.781028 11.0094 0.333313 11.4572 0.333313 12.0094C0.333313 12.5617 0.781028 13.0094 1.33331 13.0094V11.0094ZM6.66665 13.0094C7.21893 13.0094 7.66665 12.5617 7.66665 12.0094C7.66665 11.4572 7.21893 11.0094 6.66665 11.0094V13.0094ZM12.0133 13.0094C12.5656 13.0094 13.0133 12.5617 13.0133 12.0094C13.0133 11.4572 12.5656 11.0094 12.0133 11.0094V13.0094ZM17.3466 13.0094C17.8989 13.0094 18.3466 12.5617 18.3466 12.0094C18.3466 11.4572 17.8989 11.0094 17.3466 11.0094V13.0094ZM22.6666 11.0094C22.1144 11.0094 21.6666 11.4572 21.6666 12.0094C21.6666 12.5617 22.1144 13.0094 22.6666 13.0094V11.0094ZM22.68 13.0094C23.2323 13.0094 23.68 12.5617 23.68 12.0094C23.68 11.4572 23.2323 11.0094 22.68 11.0094V13.0094ZM2.66665 2.34277H5.33331V0.342773H2.66665V2.34277ZM5.66665 2.67611V5.34277H7.66665V2.67611H5.66665ZM5.33331 5.67611H2.66665V7.67611H5.33331V5.67611ZM2.33331 5.34277V2.67611H0.333313V5.34277H2.33331ZM2.66665 5.67611C2.48255 5.67611 2.33331 5.52687 2.33331 5.34277H0.333313C0.333313 6.63144 1.37798 7.67611 2.66665 7.67611V5.67611ZM5.66665 5.34277C5.66665 5.52687 5.51741 5.67611 5.33331 5.67611V7.67611C6.62198 7.67611 7.66665 6.63144 7.66665 5.34277H5.66665ZM5.33331 2.34277C5.51741 2.34277 5.66665 2.49201 5.66665 2.67611H7.66665C7.66665 1.38744 6.62198 0.342773 5.33331 0.342773V2.34277ZM2.66665 0.342773C1.37798 0.342773 0.333313 1.38744 0.333313 2.67611H2.33331C2.33331 2.49201 2.48255 2.34277 2.66665 2.34277V0.342773ZM18.6666 2.34277H21.3333V0.342773H18.6666V2.34277ZM21.6666 2.67611V5.34277H23.6666V2.67611H21.6666ZM21.3333 5.67611H18.6666V7.67611H21.3333V5.67611ZM18.3333 5.34277V2.67611H16.3333V5.34277H18.3333ZM18.6666 5.67611C18.4825 5.67611 18.3333 5.52687 18.3333 5.34277H16.3333C16.3333 6.63144 17.378 7.67611 18.6666 7.67611V5.67611ZM21.6666 5.34277C21.6666 5.52687 21.5174 5.67611 21.3333 5.67611V7.67611C22.622 7.67611 23.6666 6.63144 23.6666 5.34277H21.6666ZM21.3333 2.34277C21.5174 2.34277 21.6666 2.49201 21.6666 2.67611H23.6666C23.6666 1.38744 22.622 0.342773 21.3333 0.342773V2.34277ZM18.6666 0.342773C17.378 0.342773 16.3333 1.38744 16.3333 2.67611H18.3333C18.3333 2.49201 18.4825 2.34277 18.6666 2.34277V0.342773ZM2.66665 18.3428H5.33331V16.3428H2.66665V18.3428ZM5.66665 18.6761V21.3428H7.66665V18.6761H5.66665ZM5.33331 21.6761H2.66665V23.6761H5.33331V21.6761ZM2.33331 21.3428V18.6761H0.333313V21.3428H2.33331ZM2.66665 21.6761C2.48255 21.6761 2.33331 21.5269 2.33331 21.3428H0.333313C0.333313 22.6314 1.37798 23.6761 2.66665 23.6761V21.6761ZM5.66665 21.3428C5.66665 21.5269 5.51741 21.6761 5.33331 21.6761V23.6761C6.62198 23.6761 7.66665 22.6314 7.66665 21.3428H5.66665ZM5.33331 18.3428C5.51741 18.3428 5.66665 18.492 5.66665 18.6761H7.66665C7.66665 17.3874 6.62198 16.3428 5.33331 16.3428V18.3428ZM2.66665 16.3428C1.37798 16.3428 0.333313 17.3874 0.333313 18.6761H2.33331C2.33331 18.492 2.48255 18.3428 2.66665 18.3428V16.3428ZM11 1.34277V2.67611H13V1.34277H11ZM20 18.3428H22.6666V16.3428H20V18.3428ZM12 18.3428H14.6666V16.3428H12V18.3428ZM11 17.3428V22.6761H13V17.3428H11ZM11 8.00944V12.0094H13V8.00944H11ZM17.3333 23.6761H22.6666V21.6761H17.3333V23.6761ZM1.33331 13.0094H6.66665V11.0094H1.33331V13.0094ZM12 13.0094H12.0133V11.0094H12V13.0094ZM22.6666 13.0094H22.68V11.0094H22.6666V13.0094ZM12 13.0094H17.3466V11.0094H12V13.0094Z" fill="#827D89"/>
</svg>
