<svg width="26" height="26" viewBox="0 0 26 26" fill="none" xmlns="http://www.w3.org/2000/svg">
<path d="M14.5 2.34277C14.5 1.51435 13.8284 0.842773 13 0.842773C12.1716 0.842773 11.5 1.51435 11.5 2.34277H14.5ZM11.5 3.67611C11.5 4.50453 12.1716 5.17611 13 5.17611C13.8284 5.17611 14.5 4.50453 14.5 3.67611H11.5ZM21 16.8428C20.1716 16.8428 19.5 17.5143 19.5 18.3428C19.5 19.1712 20.1716 19.8428 21 19.8428V16.8428ZM23.6666 19.8428C24.4951 19.8428 25.1666 19.1712 25.1666 18.3428C25.1666 17.5143 24.4951 16.8428 23.6666 16.8428V19.8428ZM13 18.3428V16.8428C12.1716 16.8428 11.5 17.5143 11.5 18.3428H13ZM15.6666 19.8428C16.4951 19.8428 17.1666 19.1712 17.1666 18.3428C17.1666 17.5143 16.4951 16.8428 15.6666 16.8428V19.8428ZM11.5 23.6761C11.5 24.5045 12.1716 25.1761 13 25.1761C13.8284 25.1761 14.5 24.5045 14.5 23.6761H11.5ZM14.5 9.00944C14.5 8.18101 13.8284 7.50944 13 7.50944C12.1716 7.50944 11.5 8.18101 11.5 9.00944H14.5ZM13 13.0094H11.5C11.5 13.8379 12.1716 14.5094 13 14.5094V13.0094ZM18.3333 22.1761C17.5049 22.1761 16.8333 22.8477 16.8333 23.6761C16.8333 24.5045 17.5049 25.1761 18.3333 25.1761V22.1761ZM23.6666 25.1761C24.4951 25.1761 25.1666 24.5045 25.1666 23.6761C25.1666 22.8477 24.4951 22.1761 23.6666 22.1761V25.1761ZM2.33331 11.5094C1.50489 11.5094 0.833313 12.181 0.833313 13.0094C0.833313 13.8379 1.50489 14.5094 2.33331 14.5094V11.5094ZM7.66665 14.5094C8.49507 14.5094 9.16665 13.8379 9.16665 13.0094C9.16665 12.181 8.49507 11.5094 7.66665 11.5094V14.5094ZM13.0133 14.5094C13.8417 14.5094 14.5133 13.8379 14.5133 13.0094C14.5133 12.181 13.8417 11.5094 13.0133 11.5094V14.5094ZM18.3466 14.5094C19.1751 14.5094 19.8466 13.8379 19.8466 13.0094C19.8466 12.181 19.1751 11.5094 18.3466 11.5094V14.5094ZM23.6666 11.5094C22.8382 11.5094 22.1666 12.181 22.1666 13.0094C22.1666 13.8379 22.8382 14.5094 23.6666 14.5094V11.5094ZM23.68 14.5094C24.5084 14.5094 25.18 13.8379 25.18 13.0094C25.18 12.181 24.5084 11.5094 23.68 11.5094V14.5094ZM3.66665 3.84277H6.33331V0.842773H3.66665V3.84277ZM6.16665 3.67611V6.34277H9.16665V3.67611H6.16665ZM6.33331 6.17611H3.66665V9.17611H6.33331V6.17611ZM3.83331 6.34277V3.67611H0.833313V6.34277H3.83331ZM3.66665 6.17611C3.75869 6.17611 3.83331 6.25073 3.83331 6.34277H0.833313C0.833313 7.90758 2.10184 9.17611 3.66665 9.17611V6.17611ZM6.16665 6.34277C6.16665 6.25073 6.24127 6.17611 6.33331 6.17611V9.17611C7.89812 9.17611 9.16665 7.90758 9.16665 6.34277H6.16665ZM6.33331 3.84277C6.24127 3.84277 6.16665 3.76815 6.16665 3.67611H9.16665C9.16665 2.1113 7.89812 0.842773 6.33331 0.842773V3.84277ZM3.66665 0.842773C2.10184 0.842773 0.833313 2.1113 0.833313 3.67611H3.83331C3.83331 3.76815 3.75869 3.84277 3.66665 3.84277V0.842773ZM19.6666 3.84277H22.3333V0.842773H19.6666V3.84277ZM22.1666 3.67611V6.34277H25.1666V3.67611H22.1666ZM22.3333 6.17611H19.6666V9.17611H22.3333V6.17611ZM19.8333 6.34277V3.67611H16.8333V6.34277H19.8333ZM19.6666 6.17611C19.7587 6.17611 19.8333 6.25073 19.8333 6.34277H16.8333C16.8333 7.90758 18.1018 9.17611 19.6666 9.17611V6.17611ZM22.1666 6.34277C22.1666 6.25073 22.2413 6.17611 22.3333 6.17611V9.17611C23.8981 9.17611 25.1666 7.90758 25.1666 6.34277H22.1666ZM22.3333 3.84277C22.2413 3.84277 22.1666 3.76815 22.1666 3.67611H25.1666C25.1666 2.1113 23.8981 0.842773 22.3333 0.842773V3.84277ZM19.6666 0.842773C18.1018 0.842773 16.8333 2.1113 16.8333 3.67611H19.8333C19.8333 3.76815 19.7587 3.84277 19.6666 3.84277V0.842773ZM3.66665 19.8428H6.33331V16.8428H3.66665V19.8428ZM6.16665 19.6761V22.3428H9.16665V19.6761H6.16665ZM6.33331 22.1761H3.66665V25.1761H6.33331V22.1761ZM3.83331 22.3428V19.6761H0.833313V22.3428H3.83331ZM3.66665 22.1761C3.75869 22.1761 3.83331 22.2507 3.83331 22.3428H0.833313C0.833313 23.9076 2.10184 25.1761 3.66665 25.1761V22.1761ZM6.16665 22.3428C6.16665 22.2507 6.24127 22.1761 6.33331 22.1761V25.1761C7.89812 25.1761 9.16665 23.9076 9.16665 22.3428H6.16665ZM6.33331 19.8428C6.24127 19.8428 6.16665 19.7682 6.16665 19.6761H9.16665C9.16665 18.1113 7.89812 16.8428 6.33331 16.8428V19.8428ZM3.66665 16.8428C2.10184 16.8428 0.833313 18.1113 0.833313 19.6761H3.83331C3.83331 19.7682 3.75869 19.8428 3.66665 19.8428V16.8428ZM11.5 2.34277V3.67611H14.5V2.34277H11.5ZM21 19.8428H23.6666V16.8428H21V19.8428ZM13 19.8428H15.6666V16.8428H13V19.8428ZM11.5 18.3428V23.6761H14.5V18.3428H11.5ZM11.5 9.00944V13.0094H14.5V9.00944H11.5ZM18.3333 25.1761H23.6666V22.1761H18.3333V25.1761ZM2.33331 14.5094H7.66665V11.5094H2.33331V14.5094ZM13 14.5094H13.0133V11.5094H13V14.5094ZM23.6666 14.5094H23.68V11.5094H23.6666V14.5094ZM13 14.5094H18.3466V11.5094H13V14.5094Z" fill="white"/>
</svg>
